PathFileType	4	(X/Y/Z)	Run_200 02
DataRate	CameraRate	NumFrames	NumMarkers	Units	OrigDataRate	OrigDataStartFrame	OrigNumFrames
120	120	8	42	mm	120	147	128
Frame#	Time	LASI			RASI			LPSI			RPSI			RTH1			RTH2			RTH3			LTH1			LTH2			LTH3			RTB1			RTB2			RTB3			LTB1			LTB2			LTB3			RCAL			RTOE			RMT5			LCAL			LTOE			LMT5			LACR			RACR			CLAV			C7			RUA1			RUA2			RUA3			RLEL			RMEL			LUA1			LUA2			LUA3			LLEL			LMEL			RFAsuperior			RFAradius			RFAulna			LFAsuperior			LFAradius			LFAulna			
		X1	Y1	Z1	X2	Y2	Z2	X3	Y3	Z3	X4	Y4	Z4	X5	Y5	Z5	X6	Y6	Z6	X7	Y7	Z7	X8	Y8	Z8	X9	Y9	Z9	X10	Y10	Z10	X11	Y11	Z11	X12	Y12	Z12	X13	Y13	Z13	X14	Y14	Z14	X15	Y15	Z15	X16	Y16	Z16	X17	Y17	Z17	X18	Y18	Z18	X19	Y19	Z19	X20	Y20	Z20	X21	Y21	Z21	X22	Y22	Z22	X23	Y23	Z23	X24	Y24	Z24	X25	Y25	Z25	X26	Y26	Z26	X27	Y27	Z27	X28	Y28	Z28	X29	Y29	Z29	X30	Y30	Z30	X31	Y31	Z31	X32	Y32	Z32	X33	Y33	Z33	X34	Y34	Z34	X35	Y35	Z35	X36	Y36	Z36	X37	Y37	Z37	X38	Y38	Z38	X39	Y39	Z39	X40	Y40	Z40	X41	Y41	Z41	X42	Y42	Z42	

147	1.35	916.080741	1117.468119	-458.629664	924.112917	1108.309447	-200.966751	740.890891	1154.56617	-367.692456	744.1846829999999	1152.17333	-283.151015	836.508096	936.604252	-153.854854	861.596343	818.968876	-171.809151	765.103706	726.119027	-191.969285	888.536544	901.753124	-510.553104	981.760043	798.073664	-500.498369	947.76534	676.298739	-467.001142	691.10346	437.198882	-272.223151	628.7391280000001	406.226105	-205.041247	563.5045699999999	329.20743	-272.094628	1050.599001	459.55786	-399.988254	1034.506641	369.413727	-453.671436	1061.571047	260.006822	-384.379963	388.888256	313.569342	-280.135354	492.942463	105.591134	-302.039176	432.419436	142.372006	-212.602508	975.709832	97.88829699999999	-371.428704	1203.691639	149.869387	-347.791966	1152.137909	91.56168599999999	-430.152329	905.054921	1583.878681	-508.167272	943.655635	1597.472594	-176.969912	966.185218	1532.326306	-313.61845	851.315978	1623.043144	-329.460196	932.917434	1503.897204	-92.911524	938.230821	1415.02051	-88.468357	871.461607	1411.110616	-44.198535	867.0583779999999	1276.462015	9.749215	813.922088	1261.345254	-57.025699	847.585993	1521.494276	-579.616225	830.543375	1451.74703	-581.086577	738.562679	1477.615989	-554.5848570000001	657.7372319999999	1334.51445	-616.101465	624.570615	1338.554407	-535.787515	961.882593	1291.853502	-41.832604	1056.009529	1336.200671	-186.510047	1085.782195	1278.511038	-148.059277	745.3442219999999	1294.684261	-603.044565	893.220583	1242.8914	-506.197607	868.22031	1182.010854	-535.85159	
148	1.358333	916.079188	1113.846228	-458.920703	924.489904	1105.101386	-202.319062	740.804875	1149.696134	-367.602408	744.388744	1147.39646	-283.150659	840.443809	931.939044	-154.808146	867.093225	814.762891	-173.426676	772.257989	720.480018	-192.752557	887.459176	897.879718	-510.567807	980.869677	794.836856	-499.839285	947.097775	672.45048	-466.928164	696.509446	435.342393	-272.624621	632.877022	407.40803	-204.965918	565.437348	332.256988	-271.887965	1048.783943	454.966288	-399.903168	1031.484533	364.824279	-453.305881	1057.512538	255.223143	-384.083268	387.760533	324.531122	-279.215114	486.48535	113.865463	-299.797662	426.719299	152.680179	-210.660746	969.704828	95.195735	-369.352458	1198.495279	143.152236	-348.379282	1144.901194	85.24229200000001	-429.961696	905.357829	1579.918285	-509.242183	942.780359	1594.014959	-177.813572	965.714261	1528.603044	-314.473463	850.7758669999999	1619.280299	-331.048425	930.293665	1500.566576	-93.70533399999999	934.546282	1411.63315	-89.07272	867.395976	1408.662606	-45.47802	860.560663	1274.117292	8.357168	807.409613	1260.009587	-58.654298	849.049445	1516.484414	-581.019761	833.066043	1446.524035	-582.566904	740.358614	1471.095811	-557.503147	662.52194	1326.617855	-619.4093820000001	628.132538	1330.40773	-539.367115	956.104486	1287.33841	-42.854299	1052.324494	1328.771831	-186.81258	1080.242171	1270.250721	-148.112046	750.5427120000001	1288.24649	-604.720602	898.152905	1239.099043	-506.894427	874.350926	1177.310254	-536.21003	
149	1.366667	916.326876	1109.728485	-459.374303	924.936267	1101.447719	-203.448049	740.829277	1144.015594	-367.478314	744.7502500000001	1141.663737	-283.190489	844.36293	926.762486	-155.651605	872.68837	810.064873	-174.974504	779.707297	714.278721	-193.50549	886.862409	893.382898	-509.793525	980.587214	791.672386	-497.656913	946.516308	667.957033	-467.070898	702.705797	433.210389	-272.92894	637.916337	408.461322	-204.77052	569.573018	334.104529	-271.606829	1046.202735	449.122263	-399.994494	1027.096058	359.128441	-453.032208	1052.162547	249.30603	-384.035435	387.937563	335.436649	-278.130427	481.333608	122.280074	-297.350727	422.48516	163.122296	-208.534952	961.666742	93.44388499999999	-367.234628	1191.360599	133.40091	-348.820603	1135.008315	77.376716	-430.261324	905.605826	1575.170784	-510.264046	941.602441	1589.788992	-178.554188	965.126786	1524.145348	-315.25416	850.15035	1614.805434	-332.688879	927.39775	1496.398332	-94.440174	930.389758	1407.341022	-89.78872800000001	862.9385140000001	1405.444486	-46.77907	853.681424	1271.09193	7.01733	800.602696	1257.933905	-60.305135	850.734185	1510.516844	-582.556549	835.880575	1440.32248	-584.0722469999999	742.480761	1463.44184	-560.605262	667.785358	1317.678068	-622.922524	632.554255	1321.171451	-543.36876	949.998158	1282.136829	-43.754102	1048.556522	1319.878499	-186.806438	1074.500644	1260.743055	-147.611692	756.174407	1280.664724	-606.65841	903.33371	1234.336422	-507.456532	880.852852	1171.712791	-536.558958	
150	1.375	916.8649349999999	1104.850345	-460.407729	925.3895240000001	1097.16155	-204.088954	740.985276	1137.680806	-367.403545	745.093173	1135.129428	-283.239133	848.1721240000001	921.104609	-156.472611	878.334428	804.863484	-176.314202	787.368299	707.578624	-194.115868	886.866938	887.957688	-508.657645	980.8951049999999	788.059079	-494.423303	946.019712	662.697439	-467.275869	709.66245	430.712334	-273.020081	643.858748	409.240538	-204.428829	575.653726	334.782495	-271.197041	1043.238512	442.164112	-399.987826	1021.81732	352.375523	-452.382327	1045.880829	242.409563	-383.475542	389.605249	346.146616	-276.856718	477.305081	130.51481	-294.799532	419.633628	173.439462	-206.263415	951.904364	92.90383199999999	-364.85806	1182.643762	120.951897	-349.121999	1122.870113	68.889915	-431.121912	905.824325	1569.713754	-511.322247	940.156379	1584.798434	-179.254569	964.456827	1519.022124	-315.969061	849.41944	1609.637299	-334.368074	924.310911	1491.409141	-95.14503000000001	925.824284	1402.192107	-90.62289800000001	858.131571	1401.511269	-48.091392	846.4636400000001	1267.394887	5.716342	793.626977	1255.116764	-61.995438	852.633907	1503.654294	-584.195694	838.934689	1433.208488	-585.605566	744.937985	1454.694726	-563.873302	673.514049	1307.760703	-626.6194410000001	637.453303	1310.914948	-547.622415	943.545305	1276.021053	-44.457695	1044.648186	1309.572552	-186.477876	1068.461075	1249.988817	-146.691854	762.255083	1272.005411	-609.119355	908.7469620000001	1228.570408	-507.874913	887.702251	1165.259837	-536.894369	
151	1.383333	917.5318119999999	1099.026536	-462.376164	925.778055	1092.154699	-204.26459	741.035524	1130.981326	-367.4401	745.098488	1128.002272	-283.30033	851.831293	914.949105	-157.439698	884.023614	799.16644	-177.297711	795.183295	700.380474	-194.536001	887.475739	881.742868	-507.778527	981.609904	783.4296430000001	-491.386177	945.592529	656.815007	-467.20452	717.3542619999999	427.772121	-272.819488	650.702689	409.591599	-203.932135	583.120603	334.606385	-270.625487	1040.481147	434.732963	-399.457945	1016.450507	345.104462	-450.899736	1038.924595	235.143539	-381.609617	392.834013	356.522848	-275.408857	474.370062	138.399351	-292.175326	418.111404	183.465413	-203.860154	940.570416	93.35169500000001	-362.286592	1172.456561	107.50637	-348.90383	1109.120652	61.385518	-432.133216	906.084597	1563.618112	-512.544605	938.516354	1579.080212	-179.971361	963.757439	1513.252503	-316.670771	848.4772850000001	1603.81938	-336.064483	921.061943	1485.647851	-95.815566	920.921823	1396.256637	-91.544399	853.0361820000001	1396.912364	-49.403667	838.94832	1263.045203	4.416603	786.566141	1251.567837	-63.750352	854.745556	1495.982046	-585.937408	842.194284	1425.250252	-587.177822	747.692815	1444.972614	-567.298634	679.697606	1296.943669	-630.462978	642.554125	1299.70681	-551.97658	936.721514	1268.763021	-44.846525	1040.549189	1297.905003	-185.846604	1062.045079	1238.008993	-145.455541	768.787771	1262.396356	-612.058537	914.394531	1221.842808	-508.188216	894.865414	1157.980445	-537.1979260000001	
152	1.391667	917.934485	1092.423344	-464.998953	926.0524789999999	1086.423871	-204.275446	740.539592	1124.274944	-367.58362	744.458424	1120.5109	-283.41737	855.332766	908.2626310000001	-158.712765	889.7208910000001	793.054401	-177.859423	803.142514	692.657481	-194.828888	888.537458	875.593992	-507.748953	982.440826	777.6917089999999	-489.96347	945.392506	650.9020410000001	-466.722675	725.767275	424.443119	-272.408943	658.457661	409.426304	-203.335576	591.4939429999999	333.915494	-269.94079	1038.38407	427.941628	-398.139469	1011.812681	338.422902	-448.522654	1031.371574	228.617989	-378.250398	397.612204	366.424937	-273.839089	472.685904	145.894834	-289.455879	418.019432	193.127816	-201.312332	927.727528	94.282162	-359.795743	1160.675295	95.600424	-347.65668	1094.381476	56.384334	-432.610403	906.463105	1556.912612	-514.013897	936.716317	1572.754514	-180.704327	963.086876	1506.789624	-317.436434	847.167939	1597.457123	-337.779645	917.633209	1479.167287	-96.424285	915.740606	1389.601767	-92.51858	847.709881	1391.679122	-50.716235	831.165161	1258.082457	3.069134	779.397759	1247.336372	-65.59259	857.0441060000001	1487.589851	-587.791871	845.658636	1416.517916	-588.799154	750.690198	1434.42828	-570.856657	686.322146	1285.305326	-634.385193	647.832859	1287.625399	-556.355394	929.539953	1260.333691	-44.810106	1036.233574	1284.929656	-184.950675	1055.252058	1224.876351	-143.886564	775.748018	1251.970031	-615.142937	920.283692	1214.248815	-508.464052	902.295271	1149.90144	-537.449301	
153	1.4	917.6006	1085.674105	-467.172874	926.179926	1080.021195	-204.465268	739.11896	1117.841944	-367.736318	743.0657220000001	1112.85904	-283.623031	858.669546	901.064262	-160.318411	895.333376	786.737624	-178.078971	811.283699	684.454212	-195.142691	889.718641	870.7009849999999	-508.806737	983.121098	771.585653	-490.804878	945.840504	645.889801	-466.222028	734.905879	420.980691	-272.064822	667.1567690000001	408.767796	-202.776769	600.6135420000001	332.905592	-269.28731	1036.933333	422.913553	-396.185987	1008.288083	333.602833	-445.753747	1023.193274	224.015977	-374.150431	403.903313	375.710436	-272.217332	472.527158	153.00306	-286.626417	419.632594	202.388141	-198.597253	913.5125829999999	95.2637	-357.695586	1147.216339	87.239367	-345.320546	1079.051486	54.3607	-432.142855	906.969375	1549.616144	-515.747885	934.65933	1566.047253	-181.358435	962.498103	1499.608217	-318.294558	845.4243729999999	1590.766907	-339.561911	913.99847	1471.995119	-96.94260300000001	910.304451	1382.276477	-93.533292	842.190842	1385.825519	-52.023526	823.131204	1252.57289	1.628666	772.054356	1242.523411	-67.552019	859.470594	1478.523248	-589.746423	849.3383239999999	1407.080731	-590.453084	753.883769	1423.181275	-574.50271	693.364555	1272.91723	-638.296343	653.416172	1274.761694	-560.7321480000001	922.068367	1250.952025	-44.331844	1031.704266	1270.71302	-183.810217	1048.159401	1210.716565	-141.842692	783.091935	1240.809166	-618.028323	926.419739	1205.87314	-508.76851	909.944156	1141.058608	-537.641056	
154	1.408333	916.266567	1079.641063	-467.701839	926.133833	1073.079926	-204.921332	736.754732	1111.769452	-367.711211	741.1139429999999	1105.208498	-283.876582	861.815338	893.520728	-162.081392	900.7420519999999	780.576738	-178.142017	819.636248	676.002662	-195.637972	890.564138	867.704783	-510.620654	983.519123	766.463826	-493.309619	947.360765	642.5603149999999	-466.452385	744.786637	417.790043	-272.117239	676.843067	407.755365	-202.426438	610.583833	331.66344	-268.843956	1035.652145	420.107839	-394.16328	1005.53204	331.317877	-443.431074	1014.40816	221.871963	-370.650458	411.649088	384.232867	-270.603311	474.191598	159.68441	-283.734675	423.30584	211.163583	-195.713781	898.259324	96.131923	-356.209009	1132.340223	82.774597	-342.564506	1063.303318	54.460473	-430.98103	907.486523	1541.827917	-517.732627	932.10616	1559.255186	-181.757151	962.029374	1491.893199	-319.153811	843.4219890000001	1584.094078	-341.490053	910.163846	1464.153963	-97.362477	904.601327	1374.337036	-94.604457	836.495029	1379.373314	-53.292895	814.860827	1246.614327	0.049821	764.556377	1237.266367	-69.68774500000001	861.972255	1468.756061	-591.772615	853.207931	1397.00452	-592.065197	757.237439	1411.279764	-578.207099	700.795936	1259.852957	-642.112717	659.405434	1261.211702	-565.079492	914.38126	1240.934191	-43.578637	1026.975576	1255.333103	-182.394059	1040.845547	1195.673102	-139.164654	790.773492	1228.946545	-620.609298	932.80959	1196.734989	-509.116845	917.783981	1131.494703	-537.776912	
